<svg width="104" height="103" viewBox="0 0 104 103" fill="none" xmlns="http://www.w3.org/2000/svg">
<path d="M12.9111 90.2811V80.6129H26.205L24.2713 78.9209C20.0817 75.2148 17.141 70.9849 15.449 66.2314C13.7571 61.4778 12.9111 56.684 12.9111 51.8499C12.9111 42.9068 15.5892 34.9498 20.9454 27.979C26.3016 21.0082 33.2918 16.3965 41.9158 14.1438V24.2954C36.1149 26.3902 31.4419 29.9562 27.8969 34.9933C24.3519 40.0305 22.5794 45.6493 22.5794 51.8499C22.5794 55.4755 23.2642 59.0012 24.6339 62.4269C26.0035 65.8527 28.1386 69.0142 31.0391 71.9115L32.2476 73.12V61.2764H41.9158V90.2811H12.9111Z" fill="#1666EF"/>
<path d="M61.252 78.921V89.0726C69.876 86.8199 76.8661 82.2082 82.2223 75.2374C87.5786 68.2666 90.2567 60.3096 90.2567 51.3665C90.2599 46.5356 89.3543 41.803 87.5399 37.1687C85.7255 32.5344 82.8443 28.2433 78.8965 24.2954L76.9628 22.6035H90.2567V12.9353H61.252V41.94H70.9202V30.0964L72.1287 31.3049C75.0292 34.2086 77.1643 37.3717 78.5339 40.7943C79.9036 44.2168 80.5884 47.7409 80.5884 51.3665C80.5884 57.5735 78.8159 63.194 75.2709 68.2279C71.7259 73.2618 67.0529 76.8262 61.252 78.921Z" fill="#12DF56"/>
</svg>
