<svg width="190" height="30" viewBox="0 0 190 30" fill="none" xmlns="http://www.w3.org/2000/svg">
<path d="M52.2001 7.38829C54.7435 7.38829 56.6968 7.9987 58.06 9.21951C59.4233 10.42 60.1049 12.241 60.1049 14.6826V24.0524H55.6489V22.0075C54.7537 23.5335 53.0852 24.2965 50.6436 24.2965C49.3821 24.2965 48.2834 24.0829 47.3474 23.6556C46.4318 23.2283 45.7298 22.6383 45.2415 21.8854C44.7532 21.1326 44.509 20.278 44.509 19.3217C44.509 17.7957 45.0787 16.5952 46.2182 15.7203C47.3779 14.8454 49.1583 14.408 51.5592 14.408H55.3437C55.3437 13.3703 55.0284 12.5767 54.3976 12.0274C53.7669 11.4577 52.8207 11.1728 51.5592 11.1728C50.6843 11.1728 49.8196 11.3152 48.965 11.6001C48.1308 11.8646 47.4186 12.2308 46.8286 12.6988L45.1194 9.37211C46.0147 8.74136 47.0829 8.25303 48.3241 7.90713C49.5856 7.56124 50.8776 7.38829 52.2001 7.38829ZM51.8339 21.0919C52.6478 21.0919 53.3701 20.9088 54.0008 20.5425C54.6316 20.1559 55.0792 19.5964 55.3437 18.8639V17.1853H52.0781C50.1248 17.1853 49.1481 17.8262 49.1481 19.1081C49.1481 19.7185 49.3821 20.2068 49.8501 20.5731C50.3384 20.919 50.9997 21.0919 51.8339 21.0919Z" fill="black"/>
<path d="M74.1194 7.38829C75.6455 7.38829 77.029 7.74436 78.2702 8.4565C79.5317 9.14829 80.5185 10.1351 81.2307 11.417C81.9428 12.6785 82.2989 14.1536 82.2989 15.8424C82.2989 17.5312 81.9428 19.0165 81.2307 20.2984C80.5185 21.5599 79.5317 22.5467 78.2702 23.2588C77.029 23.9506 75.6455 24.2965 74.1194 24.2965C72.0237 24.2965 70.3756 23.6353 69.1752 22.3127V29.9733H64.414V7.63245H68.9615V9.52471C70.1416 8.10043 71.8609 7.38829 74.1194 7.38829ZM73.2954 20.3899C74.5162 20.3899 75.5132 19.983 76.2864 19.1691C77.0799 18.3349 77.4767 17.226 77.4767 15.8424C77.4767 14.4588 77.0799 13.3601 76.2864 12.5462C75.5132 11.712 74.5162 11.2949 73.2954 11.2949C72.0746 11.2949 71.0674 11.712 70.2739 12.5462C69.5007 13.3601 69.1141 14.4588 69.1141 15.8424C69.1141 17.226 69.5007 18.3349 70.2739 19.1691C71.0674 19.983 72.0746 20.3899 73.2954 20.3899Z" fill="black"/>
<path d="M95.1916 7.38829C96.7176 7.38829 98.1012 7.74436 99.3423 8.4565C100.604 9.14829 101.591 10.1351 102.303 11.417C103.015 12.6785 103.371 14.1536 103.371 15.8424C103.371 17.5312 103.015 19.0165 102.303 20.2984C101.591 21.5599 100.604 22.5467 99.3423 23.2588C98.1012 23.9506 96.7176 24.2965 95.1916 24.2965C93.0958 24.2965 91.4477 23.6353 90.2473 22.3127V29.9733H85.4861V7.63245H90.0336V9.52471C91.2138 8.10043 92.9331 7.38829 95.1916 7.38829ZM94.3675 20.3899C95.5883 20.3899 96.5853 19.983 97.3585 19.1691C98.152 18.3349 98.5488 17.226 98.5488 15.8424C98.5488 14.4588 98.152 13.3601 97.3585 12.5462C96.5853 11.712 95.5883 11.2949 94.3675 11.2949C93.1467 11.2949 92.1395 11.712 91.346 12.5462C90.5728 13.3601 90.1862 14.4588 90.1862 15.8424C90.1862 17.226 90.5728 18.3349 91.346 19.1691C92.1395 19.983 93.1467 20.3899 94.3675 20.3899Z" fill="black"/>
<path d="M114.371 24.2965C112.642 24.2965 111.085 23.9405 109.702 23.2283C108.339 22.4958 107.27 21.4887 106.497 20.2068C105.724 18.925 105.337 17.4702 105.337 15.8424C105.337 14.2147 105.724 12.7599 106.497 11.478C107.27 10.1962 108.339 9.19916 109.702 8.48702C111.085 7.75453 112.642 7.38829 114.371 7.38829C116.101 7.38829 117.647 7.75453 119.011 8.48702C120.374 9.19916 121.442 10.1962 122.215 11.478C122.988 12.7599 123.375 14.2147 123.375 15.8424C123.375 17.4702 122.988 18.925 122.215 20.2068C121.442 21.4887 120.374 22.4958 119.011 23.2283C117.647 23.9405 116.101 24.2965 114.371 24.2965ZM114.371 20.3899C115.592 20.3899 116.589 19.983 117.362 19.1691C118.156 18.3349 118.553 17.226 118.553 15.8424C118.553 14.4588 118.156 13.3601 117.362 12.5462C116.589 11.712 115.592 11.2949 114.371 11.2949C113.151 11.2949 112.143 11.712 111.35 12.5462C110.556 13.3601 110.16 14.4588 110.16 15.8424C110.16 17.226 110.556 18.3349 111.35 19.1691C112.143 19.983 113.151 20.3899 114.371 20.3899Z" fill="black"/>
<path d="M143.282 1.40631V24.0524H138.735V22.1601C137.555 23.5844 135.846 24.2965 133.608 24.2965C132.061 24.2965 130.657 23.9506 129.396 23.2588C128.155 22.5671 127.178 21.5802 126.466 20.2984C125.754 19.0165 125.398 17.5312 125.398 15.8424C125.398 14.1536 125.754 12.6683 126.466 11.3864C127.178 10.1046 128.155 9.11777 129.396 8.42598C130.657 7.73419 132.061 7.38829 133.608 7.38829C135.703 7.38829 137.341 8.04956 138.521 9.37211V1.40631H143.282ZM134.432 20.3899C135.632 20.3899 136.629 19.983 137.423 19.1691C138.216 18.3349 138.613 17.226 138.613 15.8424C138.613 14.4588 138.216 13.3601 137.423 12.5462C136.629 11.712 135.632 11.2949 134.432 11.2949C133.211 11.2949 132.204 11.712 131.41 12.5462C130.617 13.3601 130.22 14.4588 130.22 15.8424C130.22 17.226 130.617 18.3349 131.41 19.1691C132.204 19.983 133.211 20.3899 134.432 20.3899Z" fill="black"/>
<path d="M163.773 15.9035C163.773 15.9645 163.743 16.3918 163.682 17.1853H151.26C151.484 18.2027 152.013 19.0064 152.847 19.5964C153.681 20.1865 154.719 20.4815 155.96 20.4815C156.815 20.4815 157.567 20.3594 158.219 20.1153C158.89 19.8507 159.511 19.4438 160.08 18.8944L162.614 21.6413C161.067 23.4114 158.809 24.2965 155.838 24.2965C153.986 24.2965 152.349 23.9405 150.924 23.2283C149.5 22.4958 148.401 21.4887 147.628 20.2068C146.855 18.925 146.468 17.4702 146.468 15.8424C146.468 14.235 146.845 12.7904 147.598 11.5085C148.371 10.2063 149.419 9.19916 150.741 8.48702C152.084 7.75453 153.58 7.38829 155.228 7.38829C156.835 7.38829 158.29 7.73419 159.592 8.42598C160.894 9.11777 161.912 10.1148 162.644 11.417C163.397 12.6988 163.773 14.1943 163.773 15.9035ZM155.258 10.9897C154.18 10.9897 153.274 11.2949 152.542 11.9053C151.809 12.5157 151.362 13.3499 151.199 14.408H159.287C159.124 13.3703 158.676 12.5462 157.944 11.9358C157.211 11.3051 156.316 10.9897 155.258 10.9897Z" fill="black"/>
<path d="M173.119 7.38829C175.662 7.38829 177.616 7.9987 178.979 9.21951C180.342 10.42 181.024 12.241 181.024 14.6826V24.0524H176.568V22.0075C175.672 23.5335 174.004 24.2965 171.562 24.2965C170.301 24.2965 169.202 24.0829 168.266 23.6556C167.351 23.2283 166.649 22.6383 166.16 21.8854C165.672 21.1326 165.428 20.278 165.428 19.3217C165.428 17.7957 165.998 16.5952 167.137 15.7203C168.297 14.8454 170.077 14.408 172.478 14.408H176.263C176.263 13.3703 175.947 12.5767 175.316 12.0274C174.686 11.4577 173.74 11.1728 172.478 11.1728C171.603 11.1728 170.738 11.3152 169.884 11.6001C169.05 11.8646 168.337 12.2308 167.747 12.6988L166.038 9.37211C166.933 8.74136 168.002 8.25303 169.243 7.90713C170.504 7.56124 171.796 7.38829 173.119 7.38829ZM172.753 21.0919C173.567 21.0919 174.289 20.9088 174.92 20.5425C175.55 20.1559 175.998 19.5964 176.263 18.8639V17.1853H172.997C171.044 17.1853 170.067 17.8262 170.067 19.1081C170.067 19.7185 170.301 20.2068 170.769 20.5731C171.257 20.919 171.918 21.0919 172.753 21.0919Z" fill="black"/>
<path d="M185.333 1.40631H190.094V24.0524H185.333V1.40631Z" fill="black"/>
<path d="M0.5 5.02621C0.5 2.24159 2.75739 -0.0158081 5.54202 -0.0158081H25.458C28.2426 -0.0158081 30.5 2.24158 30.5 5.02621V24.9422C30.5 27.7268 28.2426 29.9842 25.458 29.9842H5.54202C2.75739 29.9842 0.5 27.7268 0.5 24.9422V5.02621Z" fill="#E83F39"/>
<path d="M17.0098 9.26197C17.4468 10.0296 17.9461 10.8577 18.6952 11.3829C19.4234 11.9081 20.3598 12.0899 21.2545 12.2515C24.2715 12.7969 24.3547 13.0393 22.3156 15.1199C21.6914 15.746 21.0464 16.4732 20.7551 17.3216C20.4846 18.1498 20.5886 19.079 20.7135 19.9476C21.1088 22.8967 20.9007 23.0583 18.2166 21.8059C17.4052 21.4221 16.4896 21.0585 15.5741 21.0585C14.6794 21.0585 13.8055 21.4423 12.9941 21.8261C10.2267 23.0987 9.99786 22.9573 10.3932 20.1092C10.518 19.2406 10.6013 18.2912 10.31 17.4428C10.0395 16.6146 9.37365 15.9278 8.77025 15.3017C6.66874 13.1403 6.73116 12.8979 9.64414 12.3727C10.5388 12.2111 11.496 11.9889 12.245 11.4839C12.9733 10.9789 13.431 10.1508 13.868 9.38318C15.3245 6.75723 15.5949 6.73702 17.0098 9.26197Z" fill="white"/>
</svg>
