<?xml version="1.0" encoding="utf-8"?>
<svg version="1.1" xmlns="http://www.w3.org/2000/svg" width="512" height="512" viewBox="0 0 36.3 36.6" preserveAspectRatio="xMidYMid meet">
<path id="star" stroke="#e11916" stroke-width="4" d="M9.2,2 h17.8c2,0,3.8,0.8,5.1,2.1 c1.3,1.3,2.1,3.1,2.1,5.2v18.1c0,2-0.8,3.8-2.1,5.2c-1.3,1.3-3.1,2.1-5.1,2.1H9.2c-2,0-3.8-0.8-5.1-2.1c-1.3-1.3-2.1-3.1-2.1-5.2V9.3c0-2,0.8-3.8,2.1-5.2C5.4,2.8,7.2,2,9.2,2L9.2,2zM19.2,13.9c0.3,0.6,0.7,1.2,1.2,1.6c0.5,0.4,1.2,0.5,1.9,0.7c2.2,0.4,2.3,0.6,0.8,2.2c-0.5,0.5-0.9,1.1-1.1,1.7c-0.2,0.6-0.1,1.4,0,2c0.3,2.3,0.1,2.4-1.8,1.4c-0.6-0.3-1.3-0.6-1.9-0.6c-0.7,0-1.3,0.3-1.9,0.6c-2,1-2.2,0.9-1.9-1.3c0.1-0.7,0.1-1.4-0.1-2.1c-0.2-0.6-0.7-1.2-1.1-1.7c-1.6-1.7-1.5-1.9,0.6-2.3c0.7-0.1,1.4-0.3,1.9-0.7c0.5-0.4,0.9-1,1.2-1.6C17.9,11.9,18.1,11.9,19.2,13.9L19.2,13.9zM26.8,4.6H9.2c-1.3,0-2.4,0.5-3.3,1.4c-0.8,0.9-1.4,2-1.4,3.3v18.1c0,1.3,0.5,2.5,1.4,3.3c0.8,0.9,2,1.4,3.3,1.4h17.6c1.3,0,2.4-0.5,3.3-1.4c0.8-0.9,1.4-2,1.4-3.3V9.3c0-1.3-0.5-2.5-1.4-3.3c-0.8-0.9-1.8-1.4-3.1-1.4H26.8z"/>
<rect fill="#e11916" x="5" y="5" width="26" height="26"/>
<path id="star" fill="#fff" d="M9.2,2 h17.8c2,0,3.8,0.8,5.1,2.1 c1.3,1.3,2.1,3.1,2.1,5.2v18.1c0,2-0.8,3.8-2.1,5.2c-1.3,1.3-3.1,2.1-5.1,2.1H9.2c-2,0-3.8-0.8-5.1-2.1c-1.3-1.3-2.1-3.1-2.1-5.2V9.3c0-2,0.8-3.8,2.1-5.2C5.4,2.8,7.2,2,9.2,2L9.2,2zM19.2,13.9c0.3,0.6,0.7,1.2,1.2,1.6c0.5,0.4,1.2,0.5,1.9,0.7c2.2,0.4,2.3,0.6,0.8,2.2c-0.5,0.5-0.9,1.1-1.1,1.7c-0.2,0.6-0.1,1.4,0,2c0.3,2.3,0.1,2.4-1.8,1.4c-0.6-0.3-1.3-0.6-1.9-0.6c-0.7,0-1.3,0.3-1.9,0.6c-2,1-2.2,0.9-1.9-1.3c0.1-0.7,0.1-1.4-0.1-2.1c-0.2-0.6-0.7-1.2-1.1-1.7c-1.6-1.7-1.5-1.9,0.6-2.3c0.7-0.1,1.4-0.3,1.9-0.7c0.5-0.4,0.9-1,1.2-1.6C17.9,11.9,18.1,11.9,19.2,13.9L19.2,13.9zM26.8,4.6H9.2c-1.3,0-2.4,0.5-3.3,1.4c-0.8,0.9-1.4,2-1.4,3.3v18.1c0,1.3,0.5,2.5,1.4,3.3c0.8,0.9,2,1.4,3.3,1.4h17.6c1.3,0,2.4-0.5,3.3-1.4c0.8-0.9,1.4-2,1.4-3.3V9.3c0-1.3-0.5-2.5-1.4-3.3c-0.8-0.9-1.8-1.4-3.1-1.4H26.8z"/>
</svg>
