<?xml version="1.0" encoding="utf-8"?>
<svg version="1.1" xmlns="http://www.w3.org/2000/svg" width="32" height="32" viewBox="7.5 3.5 34 34" preserveAspectRatio="xMinYMid meet">
    <g fill-rule="nonzero">
        <path d="M23.728 3.596c.482-.044.965-.061 1.449-.053 8.836.325 15.932 7.402 16.28 16.238v13.33a4.377 4.377 0 0 1-4.388 4.346 4.863 4.863 0 0 1-4.09-4.335v-13.33a8.457 8.457 0 0 0-9.25-7.76" fill="#FBBC04"/>
        <path d="M41.457 33.217a4.229 4.229 0 1 1-8.458 0 4.229 4.229 0 0 1 8.458 0z" fill="#4285F4"/>
        <path d="M23.971 37.309a4.345 4.345 0 0 0 4.398-4.314 4.229 4.229 0 0 0-4.45-4.101 8.457 8.457 0 0 1-7.792-9.007v-.074a8.51 8.51 0 0 1 7.844-7.791 4.229 4.229 0 0 0 4.398-4.123 4.355 4.355 0 0 0-4.398-4.313h-.296c-8.99.416-16.08 7.798-16.132 16.798v.063c0 10.572 9.272 16.862 16.175 16.862h.253z" fill="#EA4335"/>
    </g>
</svg>
