<?xml version="1.0" encoding="utf-8"?>
<svg version="1.1" xmlns="http://www.w3.org/2000/svg" width="144" height="33" viewBox="0 -1 144 34.5" preserveAspectRatio="xMidYMid meet">
    <g stroke="#222" stroke-width="2">
        <path id="star" fill="#e11916" d="M7.2,0 h17.8c2,0,3.8,0.8,5.1,2.1 c1.3,1.3,2.1,3.1,2.1,5.2v18.1c0,2-0.8,3.8-2.1,5.2c-1.3,1.3-3.1,2.1-5.1,2.1H7.2c-2,0-3.8-0.8-5.1-2.1c-1.3-1.3-2.1-3.1-2.1-5.2V7.3c0-2,0.8-3.8,2.1-5.2C3.4,0.8,5.2,0,7.2,0L7.2,0zM17.2,11.9c0.3,0.6,0.7,1.2,1.2,1.6c0.5,0.4,1.2,0.5,1.9,0.7c2.2,0.4,2.3,0.6,0.8,2.2c-0.5,0.5-0.9,1.1-1.1,1.7c-0.2,0.6-0.1,1.4,0,2c0.3,2.3,0.1,2.4-1.8,1.4c-0.6-0.3-1.3-0.6-1.9-0.6c-0.7,0-1.3,0.3-1.9,0.6c-2,1-2.2,0.9-1.9-1.3c0.1-0.7,0.1-1.4-0.1-2.1c-0.2-0.6-0.7-1.2-1.1-1.7c-1.6-1.7-1.5-1.9,0.6-2.3c0.7-0.1,1.4-0.3,1.9-0.7c0.5-0.4,0.9-1,1.2-1.6C15.9,9.9,16.1,9.9,17.2,11.9L17.2,11.9zM24.8,2.6H7.2c-1.3,0-2.4,0.5-3.3,1.4c-0.8,0.9-1.4,2-1.4,3.3v18.1c0,1.3,0.5,2.5,1.4,3.3c0.8,0.9,2,1.4,3.3,1.4h17.6c1.3,0,2.4-0.5,3.3-1.4c0.8-0.9,1.4-2,1.4-3.3V7.3c0-1.3-0.5-2.5-1.4-3.3c-0.8-0.9-1.8-1.4-3.1-1.4H24.8z"/>
        <g id="text">
            <path id="a1" d="M41.1,24.8h3.6l1.1-4.7h3.8l0.8,4.7h3.6l-3.9-18h-4.5L41.1,24.8L41.1,24.8zM46.2,17.5l1.6-8.4l1.3,8.4H46.2L46.2,17.5z"/>
            <path id="p1" d="M59.6,9.5h1.7c0.8,0,1.5,0.2,1.9,0.7c0.4,0.5,0.6,1.1,0.6,2c0,0.9-0.2,1.5-0.6,2c-0.4,0.5-1,0.7-1.9,0.7h-1.7V9.5L59.6,9.5zM59.6,17.5h2.9c0.7,0,1.4-0.1,1.9-0.4c0.6-0.3,1.1-0.7,1.5-1.2c0.4-0.5,0.7-1.1,0.9-1.7c0.2-0.7,0.3-1.3,0.3-2.1c0-0.7-0.1-1.4-0.3-2c-0.2-0.6-0.5-1.2-0.9-1.7s-0.9-0.9-1.5-1.1c-0.6-0.3-1.2-0.4-1.9-0.4h-6.3v18h3.3V17.5L59.6,17.5z"/>
            <path id="p2" d="M72.4,9.5h1.7c0.8,0,1.5,0.2,1.9,0.7c0.4,0.5,0.6,1.1,0.6,2c0,0.9-0.2,1.5-0.6,2c-0.4,0.5-1,0.7-1.9,0.7h-1.7V9.5L72.4,9.5zM72.4,17.5h2.9c0.7,0,1.4-0.1,1.9-0.4c0.6-0.3,1.1-0.7,1.5-1.2c0.4-0.5,0.7-1.1,0.9-1.7c0.2-0.7,0.3-1.3,0.3-2.1c0-0.7-0.1-1.4-0.3-2c-0.2-0.6-0.5-1.2-0.9-1.7c-0.4-0.5-0.9-0.9-1.5-1.1c-0.6-0.3-1.2-0.4-1.9-0.4H69v18h3.3V17.5L72.4,17.5z"/>
            <path id="o1" d="M81.9,12.7v6.5c0,1.1,0.1,2.1,0.4,2.9c0.3,0.8,0.7,1.4,1.2,1.9c0.5,0.5,1.1,0.8,1.8,1c0.7,0.2,1.5,0.3,2.3,0.3c0.8,0,1.6-0.1,2.3-0.3c0.7-0.2,1.3-0.5,1.8-1c0.5-0.5,0.9-1.1,1.2-1.9c0.3-0.8,0.4-1.7,0.4-2.9v-6.5c0-1.1-0.1-2.1-0.4-2.9c-0.3-0.8-0.7-1.4-1.2-1.9c-0.5-0.5-1.1-0.8-1.8-1c-0.7-0.2-1.5-0.3-2.3-0.3c-0.8,0-1.6,0.1-2.3,0.3c-0.7,0.2-1.3,0.6-1.8,1.1c-0.5,0.5-0.9,1.1-1.2,1.9C82,10.6,81.9,11.6,81.9,12.7L81.9,12.7zM87.6,9.3c0.5,0,0.9,0.1,1.2,0.4c0.3,0.2,0.6,0.6,0.8,1c0.2,0.5,0.3,1,0.3,1.6v7.3c0,0.9-0.2,1.7-0.6,2.2c-0.4,0.5-0.9,0.7-1.7,0.7c-0.8,0-1.4-0.3-1.8-0.7c-0.4-0.5-0.6-1.2-0.6-2.1v-7.3c0-1,0.2-1.7,0.6-2.2C86.2,9.6,86.8,9.3,87.6,9.3L87.6,9.3z"/>
            <path id="d1" d="M95.4,24.8h6.1c0.7,0,1.4-0.1,1.9-0.4c0.6-0.2,1-0.6,1.4-1c0.4-0.4,0.7-1,1-1.5c0.3-0.6,0.4-1.2,0.6-1.9c0.1-0.7,0.2-1.4,0.3-2.1c0.1-0.7,0.1-1.4,0.1-2.1V15c0-1.3-0.1-2.4-0.3-3.4c-0.2-0.9-0.5-1.7-0.8-2.3c-0.3-0.6-0.7-1.1-1.2-1.5c-0.5-0.4-1-0.6-1.5-0.8c-0.5-0.1-1.1-0.2-1.7-0.2h-5.9V24.8L95.4,24.8zM98.8,9.5h2.2c0.6,0,1.1,0.2,1.4,0.7c0.4,0.4,0.6,1.1,0.8,2.1c0.1,0.9,0.2,2.1,0.2,3.6c0,0.9,0,1.7-0.1,2.5c-0.1,0.8-0.2,1.4-0.4,2c-0.2,0.6-0.4,1-0.8,1.4c-0.3,0.3-0.8,0.5-1.3,0.5h-2.1V9.5L98.8,9.5z"/>
            <path id="e1" d="M108.9,6.9v18h9.4v-2.7h-6.1v-5.6h4.7v-2.7h-4.7V9.6h6.1V6.9H108.9L108.9,6.9z"/>
            <path id="a2" d="M119.9,24.8h3.6l1.1-4.7h3.8l0.8,4.7h3.6l-3.9-18h-4.5L119.9,24.8L119.9,24.8zM124.9,17.5l1.6-8.4l1.3,8.4H124.9L124.9,17.5z"/>
            <path id="l1" d="M137.9,6.9h-3.3v18h9.4v-2.7h-6.1V6.9L137.9,6.9z"/>
        </g>
    </g>
    <path id="star" fill="#e1392e" d="M7.2,0 h17.8c2,0,3.8,0.8,5.1,2.1 c1.3,1.3,2.1,3.1,2.1,5.2v18.1c0,2-0.8,3.8-2.1,5.2c-1.3,1.3-3.1,2.1-5.1,2.1H7.2c-2,0-3.8-0.8-5.1-2.1c-1.3-1.3-2.1-3.1-2.1-5.2V7.3c0-2,0.8-3.8,2.1-5.2C3.4,0.8,5.2,0,7.2,0L7.2,0zM17.2,11.9c0.3,0.6,0.7,1.2,1.2,1.6c0.5,0.4,1.2,0.5,1.9,0.7c2.2,0.4,2.3,0.6,0.8,2.2c-0.5,0.5-0.9,1.1-1.1,1.7c-0.2,0.6-0.1,1.4,0,2c0.3,2.3,0.1,2.4-1.8,1.4c-0.6-0.3-1.3-0.6-1.9-0.6c-0.7,0-1.3,0.3-1.9,0.6c-2,1-2.2,0.9-1.9-1.3c0.1-0.7,0.1-1.4-0.1-2.1c-0.2-0.6-0.7-1.2-1.1-1.7c-1.6-1.7-1.5-1.9,0.6-2.3c0.7-0.1,1.4-0.3,1.9-0.7c0.5-0.4,0.9-1,1.2-1.6C15.9,9.9,16.1,9.9,17.2,11.9L17.2,11.9zM24.8,2.6H7.2c-1.3,0-2.4,0.5-3.3,1.4c-0.8,0.9-1.4,2-1.4,3.3v18.1c0,1.3,0.5,2.5,1.4,3.3c0.8,0.9,2,1.4,3.3,1.4h17.6c1.3,0,2.4-0.5,3.3-1.4c0.8-0.9,1.4-2,1.4-3.3V7.3c0-1.3-0.5-2.5-1.4-3.3c-0.8-0.9-1.8-1.4-3.1-1.4H24.8z"/>
    <g id="text" fill="#e1392e">
        <path id="a1" d="M41.1,24.8h3.6l1.1-4.7h3.8l0.8,4.7h3.6l-3.9-18h-4.5L41.1,24.8L41.1,24.8zM46.2,17.5l1.6-8.4l1.3,8.4H46.2L46.2,17.5z"/>
        <path id="p1" d="M59.6,9.5h1.7c0.8,0,1.5,0.2,1.9,0.7c0.4,0.5,0.6,1.1,0.6,2c0,0.9-0.2,1.5-0.6,2c-0.4,0.5-1,0.7-1.9,0.7h-1.7V9.5L59.6,9.5zM59.6,17.5h2.9c0.7,0,1.4-0.1,1.9-0.4c0.6-0.3,1.1-0.7,1.5-1.2c0.4-0.5,0.7-1.1,0.9-1.7c0.2-0.7,0.3-1.3,0.3-2.1c0-0.7-0.1-1.4-0.3-2c-0.2-0.6-0.5-1.2-0.9-1.7s-0.9-0.9-1.5-1.1c-0.6-0.3-1.2-0.4-1.9-0.4h-6.3v18h3.3V17.5L59.6,17.5z"/>
        <path id="p2" d="M72.4,9.5h1.7c0.8,0,1.5,0.2,1.9,0.7c0.4,0.5,0.6,1.1,0.6,2c0,0.9-0.2,1.5-0.6,2c-0.4,0.5-1,0.7-1.9,0.7h-1.7V9.5L72.4,9.5zM72.4,17.5h2.9c0.7,0,1.4-0.1,1.9-0.4c0.6-0.3,1.1-0.7,1.5-1.2c0.4-0.5,0.7-1.1,0.9-1.7c0.2-0.7,0.3-1.3,0.3-2.1c0-0.7-0.1-1.4-0.3-2c-0.2-0.6-0.5-1.2-0.9-1.7c-0.4-0.5-0.9-0.9-1.5-1.1c-0.6-0.3-1.2-0.4-1.9-0.4H69v18h3.3V17.5L72.4,17.5z"/>
        <path id="o1" d="M81.9,12.7v6.5c0,1.1,0.1,2.1,0.4,2.9c0.3,0.8,0.7,1.4,1.2,1.9c0.5,0.5,1.1,0.8,1.8,1c0.7,0.2,1.5,0.3,2.3,0.3c0.8,0,1.6-0.1,2.3-0.3c0.7-0.2,1.3-0.5,1.8-1c0.5-0.5,0.9-1.1,1.2-1.9c0.3-0.8,0.4-1.7,0.4-2.9v-6.5c0-1.1-0.1-2.1-0.4-2.9c-0.3-0.8-0.7-1.4-1.2-1.9c-0.5-0.5-1.1-0.8-1.8-1c-0.7-0.2-1.5-0.3-2.3-0.3c-0.8,0-1.6,0.1-2.3,0.3c-0.7,0.2-1.3,0.6-1.8,1.1c-0.5,0.5-0.9,1.1-1.2,1.9C82,10.6,81.9,11.6,81.9,12.7L81.9,12.7zM87.6,9.3c0.5,0,0.9,0.1,1.2,0.4c0.3,0.2,0.6,0.6,0.8,1c0.2,0.5,0.3,1,0.3,1.6v7.3c0,0.9-0.2,1.7-0.6,2.2c-0.4,0.5-0.9,0.7-1.7,0.7c-0.8,0-1.4-0.3-1.8-0.7c-0.4-0.5-0.6-1.2-0.6-2.1v-7.3c0-1,0.2-1.7,0.6-2.2C86.2,9.6,86.8,9.3,87.6,9.3L87.6,9.3z"/>
        <path id="d1" d="M95.4,24.8h6.1c0.7,0,1.4-0.1,1.9-0.4c0.6-0.2,1-0.6,1.4-1c0.4-0.4,0.7-1,1-1.5c0.3-0.6,0.4-1.2,0.6-1.9c0.1-0.7,0.2-1.4,0.3-2.1c0.1-0.7,0.1-1.4,0.1-2.1V15c0-1.3-0.1-2.4-0.3-3.4c-0.2-0.9-0.5-1.7-0.8-2.3c-0.3-0.6-0.7-1.1-1.2-1.5c-0.5-0.4-1-0.6-1.5-0.8c-0.5-0.1-1.1-0.2-1.7-0.2h-5.9V24.8L95.4,24.8zM98.8,9.5h2.2c0.6,0,1.1,0.2,1.4,0.7c0.4,0.4,0.6,1.1,0.8,2.1c0.1,0.9,0.2,2.1,0.2,3.6c0,0.9,0,1.7-0.1,2.5c-0.1,0.8-0.2,1.4-0.4,2c-0.2,0.6-0.4,1-0.8,1.4c-0.3,0.3-0.8,0.5-1.3,0.5h-2.1V9.5L98.8,9.5z"/>
        <path id="e1" d="M108.9,6.9v18h9.4v-2.7h-6.1v-5.6h4.7v-2.7h-4.7V9.6h6.1V6.9H108.9L108.9,6.9z"/>
        <path id="a2" d="M119.9,24.8h3.6l1.1-4.7h3.8l0.8,4.7h3.6l-3.9-18h-4.5L119.9,24.8L119.9,24.8zM124.9,17.5l1.6-8.4l1.3,8.4H124.9L124.9,17.5z"/>
        <path id="l1" d="M137.9,6.9h-3.3v18h9.4v-2.7h-6.1V6.9L137.9,6.9z"/>
    </g>
</svg>
