<?xml version="1.0"?>
<svg version="1.1" xmlns="http://www.w3.org/2000/svg" width="16" height="16" viewBox="0 0 32.2 32.7" preserveAspectRatio="xMidYMid meet">
    <style>
        @keyframes rotation {
            from {
                transform: rotateZ(0);
            }
            to {
                transform: rotateZ(360deg);
            }
        }
        #arrows {
            transform-origin: 50% 50%;
            animation: rotation 1.5s infinite linear;
        }
    </style>
    <path id="arrows" fill="#000" d="M21.1,3.4 A 14 14 0 0 1 16.1 30.5 v2 l-4,-4 l4,-4 v2 A 10 10 0 0 0 19.1 7z M11.1,29.3 A 14 14 0 0 1 16.1 2.3 v-2 l4,4 l-4,4 v-2 A 10 10 0 0 0 12.7 25.6z"/>
    <path id="star" fill="#000" d="M17.2,11.9c0.3,0.6,0.7,1.2,1.2,1.6c0.5,0.4,1.2,0.5,1.9,0.7c2.2,0.4,2.3,0.6,0.8,2.2c-0.5,0.5-0.9,1.1-1.1,1.7c-0.2,0.6-0.1,1.4,0,2c0.3,2.3,0.1,2.4-1.8,1.4c-0.6-0.3-1.3-0.6-1.9-0.6c-0.7,0-1.3,0.3-1.9,0.6c-2,1-2.2,0.9-1.9-1.3c0.1-0.7,0.1-1.4-0.1-2.1c-0.2-0.6-0.7-1.2-1.1-1.7c-1.6-1.7-1.5-1.9,0.6-2.3c0.7-0.1,1.4-0.3,1.9-0.7c0.5-0.4,0.9-1,1.2-1.6C15.9,9.9,16.1,9.9,17.2,11.9L17.2,11.9z"/>
</svg>
