<?xml version="1.0" encoding="utf-8"?>
<!-- Generator: Adobe Illustrator 18.1.1, SVG Export Plug-In . SVG Version: 6.00 Build 0)  -->
<svg version="1.1" id="user" xmlns="http://www.w3.org/2000/svg" x="0px" y="0px"
     width="550px" height="550px" viewBox="0 0 550 550" enable-background="new 0 0 550 550" xml:space="preserve">
<path id="path-1" fill="lightgreen" d="M275,525C136.9,525,25,413.1,25,275S136.9,25,275,25s250,111.9,250,250S413.1,525,275,525z
	 M275,45C148.2,45,45,148.2,45,275s103.2,230,230,230s230-103.2,230-230S401.8,45,275,45z M249.8,373.2c-2.9,2.8-6.7,4.2-10.4,4.2
	c-3.9,0-7.7-1.5-10.6-4.4l-66.7-66.7c-5.9-5.9-5.9-15.3,0-21.2c5.8-5.9,15.3-5.9,21.2,0l56.3,56.2l160.5-155.7
	c5.9-5.8,15.4-5.6,21.2,0.3c5.8,5.9,5.6,15.4-0.3,21.2L249.8,373.2z"/>
</svg>
