<?xml version="1.0" encoding="utf-8"?>
<!-- Generator: Adobe Illustrator 18.1.1, SVG Export Plug-In . SVG Version: 6.00 Build 0)  -->
<svg version="1.1" id="segments" xmlns="http://www.w3.org/2000/svg" xmlns:xlink="http://www.w3.org/1999/xlink" x="0px" y="0px"
	 width="550px" height="550px" viewBox="260 -260 550 550" enable-background="new 260 -260 550 550" xml:space="preserve">
<g>
	<path fill="#fff" d="M535-221.8c-130,0-235.2,106.6-235.2,237.8c0,131.4,105.2,237.8,235.2,237.8
		c129.8,0,235.2-106.4,235.2-237.8C770.2-115.2,664.8-221.8,535-221.8L535-221.8z M535-186c110.4,0,199.8,90.3,199.8,202
		S645.4,218.2,535,218.2S335,127.6,335,16C335-95.6,424.6-186,535-186L535-186z M534.6-162.6c-9.2,0.2-17.5,8.8-17.3,18.1V16
		c-0.2,9.7,9,18.1,18.3,18.1c8.1,0,12.1-4.8,15.8-11.6L609-78.2c3.1-5.5,3.3-12.4,0.2-17.9c-2.9-5.5-9-9.1-15.2-9.1
		c-6.2,0-12.3,3.6-15.4,9.1l-25.8,45.5v-93.9C552.9-154,544.2-162.8,534.6-162.6L534.6-162.6z M374.4-1.9c-9.2,0.6-17.1,9.5-16.7,19
		c0.4,9.3,9.4,17.3,18.5,16.8h23.5c9.4,0,17.7-8.4,17.7-17.9c0-9.5-8.3-17.9-17.7-17.9h-23.5C375.6-1.9,375-1.9,374.4-1.9L374.4-1.9
		z M668.4-1.9c-9.2,0.6-17.1,9.5-16.7,19c0.4,9.3,9.4,17.3,18.5,16.8h23.5c9.4,0,17.7-8.4,17.7-17.9c0-9.5-8.3-17.9-17.7-17.9h-23.5
		C669.6-1.9,669-1.9,668.4-1.9L668.4-1.9z M534.6,134.5c-9.2,0.2-17.5,8.8-17.3,18.1v23.8c0,9.5,8.3,18.1,17.7,18.1
		c9.4,0,17.7-8.6,17.7-18.1v-23.8C552.9,143.2,544.2,134.3,534.6,134.5L534.6,134.5z"/>
</g>
</svg>
