<?xml version="1.0" encoding="utf-8"?>
<!-- Generator: Adobe Illustrator 18.1.1, SVG Export Plug-In . SVG Version: 6.00 Build 0)  -->
<svg version="1.1" id="user" xmlns="http://www.w3.org/2000/svg" x="0px" y="0px"
     width="550px" height="550px" viewBox="0 0 550 550" enable-background="new 0 0 550 550" xml:space="preserve">
<g fill="orange">
	<path d="M275,25C136.9,25,25,136.9,25,275s111.9,250,250,250s250-111.9,250-250S413.1,25,275,25z M275,505
		C148.2,505,45,401.8,45,275S148.2,45,275,45s230,103.2,230,230S401.8,505,275,505z"/>
    <path d="M295,265"/>
    <polygon points="388.2,176.2 374.1,162.1 275.3,260.9 176.6,162.1 162.4,176.2 261.2,275 254.4,281.8 162.4,373.8
		176.6,387.9 275.3,289.1 282.2,296 374.1,387.9 388.2,373.8 289.5,275 	"/>
</g>
</svg>
