<?xml version="1.0" encoding="utf-8"?>
<!-- Generator: Adobe Illustrator 18.1.1, SVG Export Plug-In . SVG Version: 6.00 Build 0)  -->
<svg version="1.1" id="user" xmlns="http://www.w3.org/2000/svg" xmlns:xlink="http://www.w3.org/1999/xlink" x="0px" y="0px"
	 width="550px" height="550px" viewBox="0 0 550 550" enable-background="new 0 0 550 550" xml:space="preserve">
<path id="path-1" fill="#fff" d="M476.8,407.9c-26.6-10.4-89.3-30.9-128.1-41.6c-3.3-1-3.7-1.1-3.7-14.1
	c0-10.7,4.8-21.5,9.3-30.6c4.9-9.9,10.9-26.5,13-41.5c5.9-6.5,13.9-19.1,19.1-43.3c4.5-21.3,2.4-29-0.6-36.3
	c-0.3-0.8-0.6-1.6-0.8-2.3c-1.2-5,0.4-30.9,4.3-51.1c2.7-13.8-0.7-55.7-20.9-80C355.6,51.8,331.2,32,286.6,31h-24.5
	c-43.9,1-68.3,20.7-81,36.1c-20.2,24.3-23.6,66.5-20.9,80.4c3.9,20.2,5.4,45.9,4.3,50.8c-0.3,0.8-0.5,1.5-0.9,2.3
	c-3,7.3-5.1,15-0.6,36.3c5.1,24.2,13.1,36.8,19.1,43.3c2.1,15,7.9,31.6,12.9,41.5c3.6,7.3,5.3,17.1,5.3,31c0,13-0.5,13.1-3.6,14.1
	C156.5,377.8,92,399.6,68.2,409.3C49.3,417,44,430.6,44,443c0,12.3,0,48.9,0,56.9c0,8.1,6.1,11.1,24.5,11.1c14.1,0,398.9,0,413,0
	c18.4,0,22.4-3,22.4-11.1c0-8,0-44.6,0-56.9C504,430.6,495.6,415.6,476.8,407.9z M363.3,208.7"/>
</svg>
