<?xml version="1.0" encoding="utf-8"?>
<!-- Generator: Adobe Illustrator 18.1.1, SVG Export Plug-In . SVG Version: 6.00 Build 0)  -->
<svg version="1.1" id="user" xmlns="http://www.w3.org/2000/svg" x="0px" y="0px"
     width="550px" height="550px" viewBox="0 0 550 550" enable-background="new 0 0 550 550" xml:space="preserve">
<g>
    <path fill="none" d="M275,45C148.2,45,45,148.2,45,275s103.2,230,230,230s230-103.2,230-230S401.8,45,275,45z"/>
    <g fill="red">
	<path d="M290,142.1c0-8.3-6.7-15-15-15c-8.3,0-15,6.7-15,15l0,22.5h0l0,154.6c0,8.3,6.7,15,15,15
		c8.3,0,15-6.7,15-15l0-25.5h0L290,142.1z"/>
        <path d="M290,387.6C290,387.6,290,387.6,290,387.6l0-1.6h-0.1c-0.8-7.6-7.2-13.5-14.9-13.4
		c-7.8,0-14.2,5.9-14.9,13.4H260l0,3.6c0,8.3,6.7,15,15,15c8.3,0,15-6.7,15-15L290,387.6L290,387.6z"/>
        <path d="M275,25C136.9,25,25,136.9,25,275s111.9,250,250,250s250-111.9,250-250S413.1,25,275,25z M275,505
		C148.2,505,45,401.8,45,275S148.2,45,275,45s230,103.2,230,230S401.8,505,275,505z"/>
    </g>
</g>
</svg>
