<?xml version="1.0"?>
<svg version="1.1" xmlns="http://www.w3.org/2000/svg" width="16" height="16" viewBox="0 0 32.2 32.7" preserveAspectRatio="xMidYMid meet">
    <path id="star"
          d="M7.2,0 h17.8c2,0,3.8,0.8,5.1,2.1 c1.3,1.3,2.1,3.1,2.1,5.2v18.1c0,2-0.8,3.8-2.1,5.2c-1.3,1.3-3.1,2.1-5.1,2.1H7.2c-2,0-3.8-0.8-5.1-2.1c-1.3-1.3-2.1-3.1-2.1-5.2V7.3c0-2,0.8-3.8,2.1-5.2C3.4,0.8,5.2,0,7.2,0L7.2,0zM24.8,2.6H7.2c-1.3,0-2.4,0.5-3.3,1.4c-0.8,0.9-1.4,2-1.4,3.3v18.1c0,1.3,0.5,2.5,1.4,3.3c0.8,0.9,2,1.4,3.3,1.4h17.6c1.3,0,2.4-0.5,3.3-1.4c0.8-0.9,1.4-2,1.4-3.3V7.3c0-1.3-0.5-2.5-1.4-3.3c-0.8-0.9-1.8-1.4-3.1-1.4H24.8z"/>
    <g fill="#fff">
        <path id="star"
              d="M7.2,0 h17.8c2,0,3.8,0.8,5.1,2.1 c1.3,1.3,2.1,3.1,2.1,5.2v18.1c0,2-0.8,3.8-2.1,5.2c-1.3,1.3-3.1,2.1-5.1,2.1H7.2c-2,0-3.8-0.8-5.1-2.1c-1.3-1.3-2.1-3.1-2.1-5.2V7.3c0-2,0.8-3.8,2.1-5.2C3.4,0.8,5.2,0,7.2,0L7.2,0zM24.8,2.6H7.2c-1.3,0-2.4,0.5-3.3,1.4c-0.8,0.9-1.4,2-1.4,3.3v18.1c0,1.3,0.5,2.5,1.4,3.3c0.8,0.9,2,1.4,3.3,1.4h17.6c1.3,0,2.4-0.5,3.3-1.4c0.8-0.9,1.4-2,1.4-3.3V7.3c0-1.3-0.5-2.5-1.4-3.3c-0.8-0.9-1.8-1.4-3.1-1.4H24.8z"/>
        <polygon points="12,8 20.2,8 17.1,19 15.1,19"/>
        <circle cx="16.1" cy="25" r="3"/>
    </g>

</svg>
